
    <svg width="3415" height="4325" viewBox="0 0 3415 4325" fill="none" xmlns="http://www.w3.org/2000/svg">
        <g id="seats:seat">
            <circle id="seat:1+1" cx="250" cy="250" r="250" fill="#F9F9F9" stroke="#CCCCCC" stroke-width="15"/>
<circle id="seat:1+2" cx="830" cy="250" r="250" fill="#F9F9F9" stroke="#CCCCCC" stroke-width="15"/>
<circle id="seat:1+3" cx="1410" cy="250" r="250" fill="#F9F9F9" stroke="#CCCCCC" stroke-width="15"/>
<circle id="seat:1+4" cx="1990" cy="250" r="250" fill="#F9F9F9" stroke="#CCCCCC" stroke-width="15"/>
<circle id="seat:1+5" cx="2570" cy="250" r="250" fill="#F9F9F9" stroke="#CCCCCC" stroke-width="15"/>
<circle id="seat:2+1" cx="250" cy="885" r="250" fill="#F9F9F9" stroke="#CCCCCC" stroke-width="15"/>
<circle id="seat:2+2" cx="830" cy="885" r="250" fill="#F9F9F9" stroke="#CCCCCC" stroke-width="15"/>
<circle id="seat:2+3" cx="1410" cy="885" r="250" fill="#F9F9F9" stroke="#CCCCCC" stroke-width="15"/>
<circle id="seat:2+4" cx="1990" cy="885" r="250" fill="#F9F9F9" stroke="#CCCCCC" stroke-width="15"/>
<circle id="seat:2+5" cx="2570" cy="885" r="250" fill="#F9F9F9" stroke="#CCCCCC" stroke-width="15"/>
<circle id="seat:3+1" cx="250" cy="1520" r="250" fill="#F9F9F9" stroke="#CCCCCC" stroke-width="15"/>
<circle id="seat:3+2" cx="830" cy="1520" r="250" fill="#F9F9F9" stroke="#CCCCCC" stroke-width="15"/>
<circle id="seat:3+3" cx="1410" cy="1520" r="250" fill="#F9F9F9" stroke="#CCCCCC" stroke-width="15"/>
<circle id="seat:3+4" cx="1990" cy="1520" r="250" fill="#F9F9F9" stroke="#CCCCCC" stroke-width="15"/>
<circle id="seat:3+5" cx="2570" cy="1520" r="250" fill="#F9F9F9" stroke="#CCCCCC" stroke-width="15"/>

<circle id="seat:4+2" cx="830" cy="2155" r="250" fill="#F9F9F9" stroke="#CCCCCC" stroke-width="15"/>
<circle id="seat:4+3" cx="1410" cy="2155" r="250" fill="#F9F9F9" stroke="#CCCCCC" stroke-width="15"/>
<circle id="seat:4+4" cx="1990" cy="2155" r="250" fill="#F9F9F9" stroke="#CCCCCC" stroke-width="15"/>
<circle id="seat:4+5" cx="2570" cy="2155" r="250" fill="#F9F9F9" stroke="#CCCCCC" stroke-width="15"/>
<circle id="seat:4+6" cx="3150" cy="2155" r="250" fill="#F9F9F9" stroke="#CCCCCC" stroke-width="15"/>
<circle id="seat:5+1" cx="250" cy="2790" r="250" fill="#F9F9F9" stroke="#CCCCCC" stroke-width="15"/>
<circle id="seat:5+2" cx="830" cy="2790" r="250" fill="#F9F9F9" stroke="#CCCCCC" stroke-width="15"/>
<circle id="seat:5+3" cx="1410" cy="2790" r="250" fill="#F9F9F9" stroke="#CCCCCC" stroke-width="15"/>
<circle id="seat:5+4" cx="1990" cy="2790" r="250" fill="#F9F9F9" stroke="#CCCCCC" stroke-width="15"/>
<circle id="seat:5+5" cx="2570" cy="2790" r="250" fill="#F9F9F9" stroke="#CCCCCC" stroke-width="15"/>
<circle id="seat:6+1" cx="250" cy="3425" r="250" fill="#F9F9F9" stroke="#CCCCCC" stroke-width="15"/>
<circle id="seat:6+2" cx="830" cy="3425" r="250" fill="#F9F9F9" stroke="#CCCCCC" stroke-width="15"/>
<circle id="seat:6+3" cx="1410" cy="3425" r="250" fill="#F9F9F9" stroke="#CCCCCC" stroke-width="15"/>
<circle id="seat:6+4" cx="1990" cy="3425" r="250" fill="#F9F9F9" stroke="#CCCCCC" stroke-width="15"/>
<circle id="seat:6+5" cx="2570" cy="3425" r="250" fill="#F9F9F9" stroke="#CCCCCC" stroke-width="15"/>
<circle id="seat:7+1" cx="250" cy="4060" r="250" fill="#F9F9F9" stroke="#CCCCCC" stroke-width="15"/>
<circle id="seat:7+2" cx="830" cy="4060" r="250" fill="#F9F9F9" stroke="#CCCCCC" stroke-width="15"/>
<circle id="seat:7+3" cx="1410" cy="4060" r="250" fill="#F9F9F9" stroke="#CCCCCC" stroke-width="15"/>
<circle id="seat:7+4" cx="1990" cy="4060" r="250" fill="#F9F9F9" stroke="#CCCCCC" stroke-width="15"/>
<circle id="seat:7+5" cx="2570" cy="4060" r="250" fill="#F9F9F9" stroke="#CCCCCC" stroke-width="15"/>
        </g>
    </svg>
    